<svg data-name="Layer 1" xmlns="http://www.w3.org/2000/svg" viewBox="0 0 57.09 45.74"><path d="M.51 0h16.32a.51.51 0 01.25.06.5.5 0 01.18.17L37.13 32a.49.49 0 010 .54L29 45.51a.5.5 0 01-.18.17.51.51 0 01-.49 0 .5.5 0 01-.18-.17L.08.77A.5.5 0 010 .52.5.5 0 01.06.26.5.5 0 01.25.07.5.5 0 01.51 0zm34.21 0h21.86a.5.5 0 01.26.07.5.5 0 01.16.19.51.51 0 01.06.26.5.5 0 01-.06.25L46.08 18.21a.5.5 0 01-.18.17.51.51 0 01-.49 0 .5.5 0 01-.18-.17L34.3.77a.5.5 0 01-.08-.25.5.5 0 01.06-.26.5.5 0 01.19-.19.5.5 0 01.25-.07z" fill="#ff8836" fill-rule="evenodd"/></svg>