<svg version="1.0" xmlns="http://www.w3.org/2000/svg" width="1706.667" height="1706.667" viewBox="0 0 1280 1280"><path d="M516.5 59C458.9 71.4 409 89.9 358.4 117.6l-10.6 5.8.6 5.1c.3 2.7 2.6 24.1 5.1 47.5 2.5 23.4 4.9 45.6 5.3 49.3l.8 6.8-15 11.3C317.3 264 293 286.1 271.7 310c-6.7 7.4-12.6 13.6-13.3 13.8-.9.2-95.5-18.2-105-20.4-1.8-.5-3.5 1.6-11.1 13.3-25.8 39.4-48.2 85.5-63.4 130.3-4.8 14-9.9 31.2-9.9 33.4 0 .8 18.6 16.4 41.3 34.7 22.6 18.2 41.6 33.5 42.1 33.9.5.5-.1 7.1-1.3 15.2-3.9 27.2-5.4 46.4-5.5 74.3 0 14.8.3 31.7.7 37.6l.8 10.5-45.5 30.4C76.5 733.7 56 747.7 56 748.2c0 2.1 6.4 30.9 9.9 44.3 10 38.1 22.8 71.7 41.8 109.5 7.3 14.6 14 27.3 14.7 28.3 1.5 2-4.8 2.5 88.9-7.7l20.8-2.2 10.1 13.4c20.8 27.7 47.8 57.1 71.8 78.3 5.2 4.6 9.6 8.9 9.8 9.6.3.9-18 94.7-20.4 104.9-.5 1.8 1.2 3.3 10.5 9.3 37.7 24.6 76.3 44.1 117.6 59.6 20.5 7.7 47.7 16 49.7 15.3.8-.3 16.5-19.3 34.9-42.3l33.4-41.6 4.5.5c2.5.3 9 1.2 14.5 2 29.3 4.5 80.8 6.5 108.6 4.3l9.5-.8 30.4 45.6 30.3 45.5 3.6-.6c54.7-9.4 117.7-32 170.9-61.2l10.3-5.7-.5-5c-.3-2.8-2.6-24.1-5.1-47.5-2.5-23.4-4.9-45.6-5.3-49.3l-.8-6.8 13-9.8c28.4-21.4 57.5-48.1 78.7-72.1 4.6-5.2 8.9-9.6 9.6-9.8.9-.3 94.7 18 104.9 20.4 1.8.5 3.3-1.4 10.1-11.8 20.5-31.6 34.7-58.2 48.7-91.1 12.2-28.7 26.7-71.4 25.3-74.9-.4-1.1-71.8-59.4-82.5-67.4-1.3-.9-1.2-3 .6-15.6 4-27.2 5.5-46.4 5.6-74.3 0-14.9-.3-31.7-.7-37.6l-.8-10.5 45.5-30.4c25.1-16.7 45.6-30.6 45.6-31 0-2-5.3-26.3-8.5-38.8-11.8-47.1-29.6-92.1-53.8-136l-5.1-9.3-5.6.5c-3 .4-22.1 2.4-42.5 4.7-20.3 2.2-42.3 4.5-48.8 5.2l-11.8 1.3-11.3-15c-6.3-8.3-15.8-20.3-21.2-26.6-11-13-42.5-44.7-52.7-53-3.7-3-6.7-6.2-6.7-7 0-.9 4.7-25.2 10.5-54s10.5-52.5 10.5-52.6c0-.7-30.3-19.7-42-26.5-20.5-11.7-53.3-27.4-75.5-36.2-27.1-10.6-58-20.5-60.8-19.4-1 .4-58.6 71.1-67.3 82.5-.9 1.3-3 1.2-15.6-.6-28.2-4.2-46.2-5.5-75.8-5.6-15.7 0-32.6.3-37.6.7l-9 .8-30.4-45.5c-19.6-29.5-30.9-45.6-31.9-45.5-.9 0-7.4 1.3-14.6 2.9zm142 285.1c81.2 5.3 154.9 42.2 207.6 103.9 30.2 35.2 53.1 81.4 63.3 127.1 14.7 66.2 6.8 133.3-22.8 194.4-25.2 52.1-64.1 94.7-113.6 124.5-95.1 57.4-215.3 56.5-309.6-2.2-74.1-46.1-124.2-122.6-136.9-209-8.5-58.7.7-118.2 26.5-171.7 47.7-98.4 143.1-161.5 253-167.4 12.5-.7 17.3-.7 32.5.4z"/></svg>